<svg width="2311" height="566" viewBox="0 0 2311 566" fill="none" xmlns="http://www.w3.org/2000/svg">
<path d="M1506.31 565.022L1391.4 449.978L1387.75 453.523V562.388C1387.75 564.193 1386.29 565.654 1384.49 565.654H1345.49C1343.69 565.654 1342.23 564.193 1342.23 562.388V293.455C1342.23 291.65 1343.69 290.187 1345.49 290.187H1384.49C1386.29 290.187 1387.75 291.65 1387.75 293.455V390.05L1419.52 358.316C1419.88 357.96 1420.37 357.762 1420.88 357.762H1480.59C1482.35 357.762 1483.22 359.902 1481.96 361.128L1425.43 416.917C1424.67 417.656 1424.64 418.866 1425.35 419.649L1569.21 562.368C1570.37 563.626 1569.48 565.654 1567.77 565.654H1507.75C1507.2 565.654 1506.68 565.425 1506.31 565.022Z" fill="white"/>
<path d="M1544.03 240.228H1546.88C1550.12 240.228 1552.11 238.512 1552.11 235.896C1552.11 233.046 1550.12 231.68 1546.99 231.68C1545.47 231.68 1544.5 231.799 1544.03 231.915V240.228ZM1539.27 228.637C1541.1 228.285 1543.76 228.052 1546.53 228.052C1550.31 228.052 1552.85 228.675 1554.65 230.159C1556.09 231.368 1556.91 233.203 1556.91 235.467C1556.91 238.862 1554.61 241.165 1552.11 242.024V242.142C1554.02 242.844 1555.15 244.677 1555.78 247.214C1556.64 250.494 1557.34 253.538 1557.85 254.552H1552.93C1552.54 253.771 1551.87 251.626 1551.17 248.347C1550.39 244.912 1549.18 243.819 1546.45 243.742H1544.03V254.552H1539.27V228.637Z" fill="white"/>
<path d="M1547.14 223.087C1536.84 223.087 1528.47 231.465 1528.47 241.761C1528.47 252.057 1536.84 260.433 1547.14 260.433C1557.44 260.433 1565.81 252.057 1565.81 241.761C1565.81 231.465 1557.44 223.087 1547.14 223.087ZM1547.14 264.354C1534.68 264.354 1524.55 254.218 1524.55 241.761C1524.55 229.302 1534.68 219.166 1547.14 219.166C1559.6 219.166 1569.73 229.302 1569.73 241.761C1569.73 254.218 1559.6 264.354 1547.14 264.354Z" fill="white"/>
<path d="M45.6331 519.74H136.603C174.283 519.74 206.417 490.497 207.84 452.844C209.337 413.26 177.571 380.578 138.313 380.578H51.1776C48.1147 380.578 45.6331 383.06 45.6331 386.123V519.74ZM136.15 565.373H45.6331L0 519.74V224.71C0 221.65 2.48156 219.166 5.54249 219.166H40.0886C43.1516 219.166 45.6331 221.65 45.6331 224.71V329.401C45.6331 332.462 48.1147 334.945 51.1776 334.945H138.313C202.763 334.945 255.024 388.142 253.493 452.935C252.004 515.835 199.065 565.373 136.15 565.373Z" fill="white"/>
<path d="M317.279 565.656H282.733C279.672 565.656 277.188 563.174 277.188 560.111V450.159C277.188 388.616 325.693 338.188 386.482 335.095C389.687 334.931 392.404 337.431 392.404 340.64V375.259C392.404 378.134 390.203 380.554 387.334 380.762C351.325 383.366 322.824 413.497 322.824 450.159V560.111C322.824 563.174 320.34 565.656 317.279 565.656Z" fill="white"/>
<path d="M451.165 449.877C430.792 449.877 414.438 467.407 416.391 488.175C418.096 506.273 434.01 519.739 452.189 519.739H531.686C544.778 519.739 555.393 509.126 555.393 496.033V455.422C555.393 452.359 552.911 449.877 549.848 449.877H451.165ZM531.686 565.374H452.996C407.926 565.374 369.851 528.493 370.61 483.429C371.35 439.639 407.201 404.244 451.165 404.244H548.947C552.713 404.244 555.405 400.559 554.24 396.976C551.153 387.47 542.21 380.577 531.688 380.577H422.06C418.998 380.577 416.516 378.096 416.516 375.035V340.489C416.516 337.426 418.998 334.944 422.06 334.944H531.688C569.983 334.944 601.026 365.989 601.026 404.284V496.033C601.026 534.33 569.982 565.374 531.686 565.374Z" fill="white"/>
<path d="M826.759 565.374H607.418C605.134 565.374 603.831 562.766 605.201 560.938L737.144 385.014C738.514 383.185 737.211 380.579 734.927 380.579H629.952C626.891 380.579 624.409 378.096 624.409 375.035V340.488C624.409 337.428 626.891 334.944 629.952 334.944H826.193C828.477 334.944 829.782 337.552 828.412 339.379L696.47 515.305C695.099 517.132 696.402 519.741 698.686 519.741H826.759C829.82 519.741 832.303 522.222 832.303 525.283V559.829C832.303 562.892 829.82 565.374 826.759 565.374Z" fill="white"/>
<path d="M990.762 565.374H970.33C907.012 565.374 855.682 514.044 855.682 450.725V222.4C855.682 220.614 857.131 219.167 858.917 219.167H898.082C899.869 219.167 901.317 220.614 901.317 222.4V450.725C901.317 488.841 932.215 519.741 970.33 519.741H990.762C992.548 519.741 993.995 521.188 993.995 522.973V562.141C993.995 563.926 992.548 565.374 990.762 565.374Z" fill="white"/>
<path d="M1313.7 565.656H1274.53C1272.75 565.656 1271.3 564.208 1271.3 562.423V451.695C1271.3 414.108 1242.13 382.051 1204.57 380.63C1165.08 379.133 1132.48 410.826 1132.48 449.991V562.423C1132.48 564.208 1131.03 565.656 1129.25 565.656H1090.08C1088.29 565.656 1086.85 564.208 1086.85 562.423V452.146C1086.85 389.322 1136.31 336.46 1199.12 334.977C1263.82 333.45 1316.93 385.632 1316.93 449.991V562.423C1316.93 564.208 1315.49 565.656 1313.7 565.656Z" fill="white"/>
<path d="M1059.78 565.656H1020.61C1018.83 565.656 1017.38 564.208 1017.38 562.423V337.897C1017.38 336.112 1018.83 334.662 1020.61 334.662H1059.78C1061.56 334.662 1063.01 336.112 1063.01 337.897V562.423C1063.01 564.208 1061.56 565.656 1059.78 565.656Z" fill="white"/>
<path d="M1059.78 311.734H1020.61C1018.83 311.734 1017.38 310.287 1017.38 308.502V268.599C1017.38 266.813 1018.83 265.366 1020.61 265.366H1059.78C1061.56 265.366 1063.01 266.813 1063.01 268.599V308.502C1063.01 310.287 1061.56 311.734 1059.78 311.734Z" fill="white"/>
<path d="M45.6331 519.74H0L45.6331 565.373V519.74Z" fill="white"/>
<path d="M153.694 231.59C151.359 230.421 148.172 229.785 145.095 229.785C136.919 229.785 132.139 235.731 132.139 245.924C132.139 255.587 136.493 262.172 144.351 262.172C152.421 262.172 156.88 256.331 156.88 246.137V233.077L153.694 231.59ZM133.519 283.831C135.75 284.47 139.572 285 142.653 285C149.979 285 156.668 282.135 158.578 273.638C158.897 268.966 159.005 269.286 159.11 267.056C159.11 266.312 158.578 265.782 157.623 266.737C154.119 270.56 149.022 272.897 142.971 272.897C128.954 272.897 120.459 262.49 120.459 246.242C120.459 229.148 129.697 219.166 145.2 219.166C149.554 219.166 154.119 219.91 158.26 221.608L167.712 225.537C168.348 225.749 168.667 226.176 168.667 226.813V271.303C168.667 287.017 159.429 295.618 143.183 295.618C139.254 295.618 134.581 295.088 131.609 294.238L126.405 292.751C125.663 292.54 125.345 292.01 125.555 291.264L127.999 283.408C128.21 282.772 128.742 282.453 129.379 282.665L133.519 283.831Z" fill="white"/>
<path d="M309.595 228.616C309.595 229.36 309.17 229.785 308.426 229.785C296.853 230.317 291.755 238.386 291.755 257.922V270.56C291.755 271.303 291.332 271.728 290.587 271.728H281.137C280.393 271.728 279.97 271.303 279.97 270.56V221.397C279.97 220.653 280.393 220.228 281.137 220.228H286.446C287.189 220.228 287.615 220.547 287.826 221.183L289.527 227.236C290.163 228.405 290.693 228.616 291.65 227.554C295.898 222.034 300.675 219.38 308.426 219.166C309.17 219.166 309.595 219.592 309.595 220.335V228.616Z" fill="white"/>
<path d="M455.51 266.419C454.872 265.145 454.235 265.25 453.068 266.312C448.926 270.984 443.616 272.79 438.414 272.79C426.309 272.79 418.983 265.25 418.983 252.72V221.397C418.983 220.653 419.408 220.228 420.149 220.228H429.601C430.345 220.228 430.768 220.653 430.768 221.397V251.446C430.768 258.136 434.274 262.171 440.006 262.171C447.864 262.171 452.431 256.437 452.431 246.137V221.397C452.431 220.653 452.855 220.228 453.598 220.228H463.048C463.791 220.228 464.216 220.653 464.216 221.397V270.559C464.216 271.303 463.791 271.728 463.048 271.728H457.741C456.995 271.728 456.572 271.409 456.465 270.666L455.51 266.419Z" fill="white"/>
<path d="M591.021 260.366C593.569 261.639 596.541 262.171 599.727 262.171C607.905 262.171 612.576 256.118 612.576 245.925C612.576 235.839 607.905 229.784 600.045 229.784C592.082 229.784 587.835 236.369 587.835 245.605V258.879L591.021 260.366ZM585.075 225.643C585.498 226.812 586.348 226.705 587.092 225.75C591.234 221.078 596.223 219.168 601.959 219.168C615.868 219.168 624.256 229.466 624.256 245.925C624.256 262.596 615.338 272.896 600.472 272.896C596.648 272.896 593.888 272.259 590.807 270.877L587.942 269.604V293.389C587.942 294.133 587.517 294.558 586.773 294.558H577.324C576.58 294.558 576.155 294.133 576.155 293.389V221.396C576.155 220.653 576.58 220.228 577.324 220.228H582.633C583.374 220.228 583.801 220.546 583.906 221.183L585.075 225.643Z" fill="white"/>
<path d="M742.779 245.924C742.779 256.117 747.556 262.17 755.626 262.17C763.484 262.17 768.368 256.117 768.368 245.924C768.368 235.838 763.484 229.785 755.626 229.785C747.556 229.785 742.779 235.838 742.779 245.924ZM780.048 245.924C780.048 262.49 770.705 272.895 755.626 272.895C740.442 272.895 731.099 262.49 731.099 245.924C731.099 229.574 740.442 219.167 755.626 219.167C770.705 219.167 780.048 229.574 780.048 245.924Z" fill="white"/>
<path d="M1974.74 244.564C1970.38 244.564 1968.33 246.611 1968.33 249.636C1968.33 253.105 1970.74 255.24 1975 255.24C1982.03 255.24 1985.86 251.77 1985.86 245.187V244.564H1974.74ZM1966.55 220.281C1969.58 219.391 1972.6 218.946 1976.25 218.946C1988.26 218.946 1995.64 225.171 1995.64 235.935V262.001C1995.64 262.624 1995.29 262.979 1994.66 262.979H1990.22C1989.59 262.979 1989.24 262.713 1989.06 262.179L1988.35 259.42C1987.82 258.176 1987.28 258.176 1986.13 259.242C1983.37 262.266 1979.36 263.958 1973.94 263.958C1964.06 263.958 1958.55 258.886 1958.55 250.526C1958.55 242.164 1964.24 236.827 1974.74 236.827H1985.86V236.291C1985.86 230.865 1982.39 227.929 1975.81 227.929C1973.23 227.929 1971 228.198 1968.87 228.819L1965.66 229.798C1965.04 229.976 1964.6 229.711 1964.42 229.086L1962.46 222.503C1962.28 221.882 1962.55 221.435 1963.17 221.258L1966.55 220.281Z" fill="white"/>
<path d="M2026.68 224.283C2027.21 225.349 2027.75 225.262 2028.73 224.37C2032.19 220.457 2036.64 218.946 2041 218.946C2051.14 218.946 2057.28 225.262 2057.28 235.758V262.001C2057.28 262.624 2056.93 262.98 2056.3 262.98H2048.39C2047.76 262.98 2047.41 262.624 2047.41 262.001V236.825C2047.41 231.221 2044.47 227.84 2039.67 227.84C2033.08 227.84 2029.26 232.643 2029.26 241.272V262.001C2029.26 262.624 2028.9 262.98 2028.28 262.98H2020.36C2019.74 262.98 2019.39 262.624 2019.39 262.001V220.813C2019.39 220.19 2019.74 219.834 2020.36 219.834H2024.81C2025.43 219.834 2025.79 220.103 2025.88 220.726L2026.68 224.283Z" fill="white"/>
<path d="M2088.85 241.363C2088.85 249.901 2092.85 254.973 2099.61 254.973C2106.2 254.973 2110.29 249.901 2110.29 241.363C2110.29 232.911 2106.2 227.842 2099.61 227.842C2092.85 227.842 2088.85 232.911 2088.85 241.363ZM2120.08 241.363C2120.08 255.24 2112.25 263.958 2099.61 263.958C2086.89 263.958 2079.07 255.24 2079.07 241.363C2079.07 227.664 2086.89 218.946 2099.61 218.946C2112.25 218.946 2120.08 227.664 2120.08 241.363Z" fill="white"/>
<path d="M2152.18 243.854C2144.79 241.986 2141.33 238.161 2141.33 231.755C2141.33 223.748 2147.29 218.946 2157.61 218.946C2161.61 218.946 2165.7 219.568 2168.64 220.369L2172.55 221.348C2173.17 221.526 2173.44 221.969 2173.26 222.592L2171.39 229.263C2171.22 229.886 2170.77 230.155 2170.15 229.977L2166.23 228.907C2163.83 228.197 2160.27 227.842 2157.61 227.842C2153.51 227.842 2151.11 229.354 2151.11 231.755C2151.11 233.799 2152.36 235.047 2155.11 235.848L2164.01 238.161C2171.75 240.119 2175.22 244.121 2175.22 250.526C2175.22 258.886 2168.99 263.958 2158.5 263.958C2153.87 263.958 2149.24 263.335 2144.88 262.089L2141.42 261.11C2140.79 260.934 2140.53 260.488 2140.7 259.865L2142.75 253.193C2142.93 252.659 2143.37 252.392 2143.9 252.57L2147.11 253.462C2150.49 254.441 2155.2 254.973 2158.5 254.973C2162.85 254.973 2165.34 253.284 2165.34 250.526C2165.34 248.39 2164.1 247.055 2161.16 246.166L2152.18 243.854Z" fill="white"/>
<path d="M1908.29 565.656H1611.24V535.383H1908.29V565.656Z" fill="white"/>
<path d="M1908.29 490.851H1699.44L1845.23 347.244C1875.55 316.914 1893.15 290.356 1893.15 244.592C1893.15 171.207 1833.45 111.505 1760.07 111.505C1686.69 111.505 1626.99 171.207 1626.99 244.592V269.817H1596.71V244.592C1596.71 154.518 1669.99 81.2321 1760.07 81.2321C1850.15 81.2321 1923.43 154.518 1923.43 244.592C1923.43 300.407 1900.69 334.583 1866.55 368.724L1773.31 460.577H1908.29V490.851Z" fill="white"/>
<path d="M2063.64 0C1991.53 0 1923.17 31.5327 1876.12 86.5167L1899.11 106.189C1940.41 57.9401 2000.38 30.2672 2063.64 30.2672C2183.02 30.2672 2280.14 127.392 2280.14 246.776C2280.14 331.44 2231.3 404.899 2160.32 440.471C2131.21 455.064 2098.37 463.28 2063.64 463.28H2063.64V493.553H2063.64C2121.27 493.553 2174.34 473.702 2216.38 440.471C2273.62 395.239 2310.41 325.223 2310.41 246.776C2310.41 110.7 2199.71 0 2063.64 0Z" fill="white"/>
<path d="M2028.46 460.422C2040.01 462.322 2051.84 463.279 2063.64 463.279V493.554C2050.2 493.554 2036.72 492.457 2023.56 490.296C1954.64 478.991 1893.41 438.541 1855.57 379.327C1832.66 343.492 1819.39 302.1 1817.2 259.625L1847.43 258.065C1849.35 295.304 1860.98 331.602 1881.07 363.034C1914.29 415.006 1968.01 450.508 2028.46 460.422Z" fill="white"/>
<path d="M1621.87 504.816L1600.61 483.275L1792 294.415C1814.69 272.233 1818.35 261.568 1818.35 244.592C1818.35 212.456 1792.21 186.314 1760.07 186.314C1727.93 186.314 1701.79 212.456 1701.79 244.592V269.817H1671.52V244.592C1671.52 195.767 1711.24 156.041 1760.07 156.041C1808.9 156.041 1848.62 195.767 1848.62 244.592C1848.62 272.115 1839.69 290.136 1813.21 316.01L1621.87 504.816Z" fill="white"/>
<path d="M2063.64 105.076C2140.77 105.076 2203.51 168.641 2203.51 246.776C2203.51 324.911 2140.77 388.475 2063.64 388.475C1986.51 388.475 1923.77 324.911 1923.77 246.776C1923.77 168.641 1986.51 105.076 2063.64 105.076ZM2063.64 418.75C2157.46 418.75 2233.79 341.6 2233.79 246.776C2233.79 151.953 2157.46 74.8027 2063.64 74.8027C1969.82 74.8027 1893.49 151.953 1893.49 246.776C1893.49 341.6 1969.82 418.75 2063.64 418.75Z" fill="white"/>
</svg>
