<svg width="1169" height="287" viewBox="0 0 1169 287" fill="none" xmlns="http://www.w3.org/2000/svg">
<path d="M761.785 285.748L703.672 227.567L701.827 229.359V284.416C701.827 285.329 701.088 286.068 700.175 286.068H680.456C679.544 286.068 678.804 285.329 678.804 284.416V148.409C678.804 147.496 679.544 146.756 680.456 146.756H700.175C701.088 146.756 701.827 147.496 701.827 148.409V197.261L717.891 181.211C718.076 181.031 718.324 180.931 718.582 180.931H748.777C749.667 180.931 750.106 182.013 749.468 182.633L720.883 210.847C720.498 211.221 720.48 211.833 720.844 212.228L793.597 284.406C794.181 285.042 793.73 286.068 792.867 286.068H762.514C762.237 286.068 761.972 285.952 761.785 285.748Z" fill="#5F257B"/>
<path d="M780.86 121.491H782.301C783.939 121.491 784.946 120.622 784.946 119.3C784.946 117.859 783.939 117.168 782.361 117.168C781.591 117.168 781.097 117.227 780.86 117.286V121.491ZM778.453 115.628C779.38 115.45 780.722 115.333 782.124 115.333C784.039 115.333 785.322 115.648 786.23 116.398C786.96 117.01 787.374 117.938 787.374 119.083C787.374 120.8 786.21 121.965 784.946 122.399V122.458C785.914 122.814 786.486 123.741 786.802 125.024C787.237 126.682 787.591 128.222 787.848 128.735H785.361C785.164 128.34 784.828 127.255 784.473 125.597C784.078 123.86 783.466 123.307 782.085 123.268H780.86V128.735H778.453V115.628Z" fill="#5F257B"/>
<path d="M782.435 112.822C777.228 112.822 772.992 117.059 772.992 122.266C772.992 127.473 777.228 131.709 782.435 131.709C787.642 131.709 791.878 127.473 791.878 122.266C791.878 117.059 787.642 112.822 782.435 112.822ZM782.435 133.692C776.135 133.692 771.009 128.566 771.009 122.266C771.009 115.965 776.135 110.84 782.435 110.84C788.735 110.84 793.861 115.965 793.861 122.266C793.861 128.566 788.735 133.692 782.435 133.692Z" fill="#5F257B"/>
<path d="M23.078 262.848H69.084C88.14 262.848 104.391 248.059 105.111 229.017C105.868 208.998 89.803 192.47 69.949 192.47H25.882C24.333 192.47 23.078 193.725 23.078 195.274V262.848ZM68.854 285.926H23.078L0 262.848V113.643C0 112.095 1.255 110.84 2.804 110.84H20.274C21.823 110.84 23.078 112.095 23.078 113.643V166.588C23.078 168.137 24.333 169.392 25.882 169.392H69.949C102.544 169.392 128.974 196.295 128.199 229.063C127.446 260.872 100.673 285.926 68.854 285.926Z" fill="#135182"/>
<path d="M160.457 286.068H142.986C141.438 286.068 140.183 284.813 140.183 283.264V227.659C140.183 196.534 164.713 171.031 195.455 169.467C197.076 169.385 198.45 170.648 198.45 172.271V189.779C198.45 191.233 197.337 192.457 195.887 192.562C177.676 193.879 163.261 209.117 163.261 227.659V283.264C163.261 284.813 162.006 286.068 160.457 286.068Z" fill="#135182"/>
<path d="M228.168 227.516C217.864 227.516 209.593 236.38 210.582 246.883C211.443 256.037 219.491 262.847 228.686 262.847H268.89C275.511 262.847 280.879 257.48 280.879 250.858V230.32C280.879 228.771 279.623 227.516 278.075 227.516H228.168ZM268.89 285.925H229.094C206.301 285.925 187.044 267.274 187.429 244.484C187.803 222.338 205.934 204.437 228.168 204.437H277.619C279.523 204.437 280.884 202.574 280.296 200.762C278.734 195.954 274.212 192.469 268.891 192.469H213.448C211.899 192.469 210.645 191.214 210.645 189.665V172.195C210.645 170.646 211.899 169.391 213.448 169.391H268.891C288.257 169.391 303.957 185.09 303.957 204.457V250.858C303.957 270.225 288.257 285.925 268.89 285.925Z" fill="#135182"/>
<path d="M418.116 285.926H307.189C306.034 285.926 305.375 284.608 306.068 283.684L372.795 194.713C373.488 193.788 372.829 192.47 371.674 192.47H318.586C317.037 192.47 315.782 191.215 315.782 189.666V172.196C315.782 170.647 317.037 169.392 318.586 169.392H417.83C418.985 169.392 419.644 170.711 418.952 171.635L352.224 260.605C351.531 261.53 352.191 262.848 353.346 262.848H418.116C419.665 262.848 420.92 264.103 420.92 265.652V283.122C420.92 284.671 419.665 285.926 418.116 285.926Z" fill="#135182"/>
<path d="M501.058 285.926H490.725C458.704 285.926 432.745 259.967 432.745 227.946V112.475C432.745 111.572 433.477 110.84 434.38 110.84H454.187C455.09 110.84 455.823 111.572 455.823 112.475V227.946C455.823 247.222 471.449 262.848 490.725 262.848H501.058C501.961 262.848 502.694 263.58 502.694 264.484V284.291C502.694 285.195 501.961 285.926 501.058 285.926Z" fill="#5F257B"/>
<path d="M664.377 286.068H644.569C643.666 286.068 642.934 285.336 642.934 284.433V228.436C642.934 209.426 628.182 193.214 609.187 192.495C589.217 191.739 572.728 207.766 572.728 227.573V284.433C572.728 285.336 571.996 286.068 571.093 286.068H551.285C550.382 286.068 549.649 285.336 549.649 284.433V228.663C549.649 196.891 574.667 170.158 606.43 169.408C639.149 168.635 666.012 195.026 666.012 227.573V284.433C666.012 285.336 665.28 286.068 664.377 286.068Z" fill="#5F257B"/>
<path d="M535.962 286.068H516.154C515.251 286.068 514.519 285.336 514.519 284.433V170.884C514.519 169.981 515.251 169.249 516.154 169.249H535.962C536.865 169.249 537.597 169.981 537.597 170.884V284.433C537.597 285.336 536.865 286.068 535.962 286.068Z" fill="#5F257B"/>
<path d="M535.962 157.653H516.154C515.251 157.653 514.519 156.921 514.519 156.018V135.839C514.519 134.935 515.251 134.203 516.154 134.203H535.962C536.865 134.203 537.597 134.935 537.597 135.839V156.018C537.597 156.921 536.865 157.653 535.962 157.653Z" fill="#135182"/>
<path d="M23.078 262.848H0L23.078 285.926V262.848Z" fill="#5F257B"/>
<path d="M77.7275 117.122C76.5465 116.531 74.9355 116.209 73.3785 116.209C69.2435 116.209 66.8275 119.216 66.8275 124.371C66.8275 129.258 69.0295 132.587 73.0015 132.587C77.0835 132.587 79.3385 129.634 79.3385 124.479V117.874L77.7275 117.122ZM67.5255 143.542C68.6525 143.865 70.5855 144.133 72.1435 144.133C75.8485 144.133 79.2315 142.684 80.1985 138.387C80.3595 136.024 80.4135 136.185 80.4665 135.058C80.4665 134.682 80.1985 134.414 79.7145 134.897C77.9435 136.83 75.3655 138.012 72.3045 138.012C65.2155 138.012 60.9195 132.748 60.9195 124.532C60.9195 115.887 65.5915 110.839 73.4325 110.839C75.6335 110.839 77.9435 111.215 80.0375 112.074L84.8165 114.06C85.1385 114.168 85.2995 114.384 85.2995 114.705V137.206C85.2995 145.153 80.6275 149.503 72.4115 149.503C70.4245 149.503 68.0615 149.235 66.5585 148.805L63.9265 148.053C63.5515 147.946 63.3905 147.678 63.4975 147.301L64.7325 143.328C64.8395 143.006 65.1085 142.845 65.4305 142.952L67.5255 143.542Z" fill="#778080"/>
<path d="M156.571 115.618C156.571 115.994 156.356 116.209 155.98 116.209C150.127 116.477 147.55 120.558 147.55 130.439V136.83C147.55 137.206 147.335 137.421 146.959 137.421H142.179C141.803 137.421 141.589 137.206 141.589 136.83V111.967C141.589 111.591 141.803 111.376 142.179 111.376H144.864C145.24 111.376 145.455 111.537 145.562 111.859L146.422 114.92C146.744 115.511 147.012 115.618 147.496 115.081C149.644 112.289 152.06 110.947 155.98 110.839C156.356 110.839 156.571 111.054 156.571 111.43V115.618Z" fill="#778080"/>
<path d="M230.365 134.736C230.042 134.091 229.719 134.145 229.13 134.682C227.035 137.045 224.35 137.958 221.719 137.958C215.596 137.958 211.891 134.145 211.891 127.808V111.967C211.891 111.591 212.106 111.376 212.482 111.376H217.261C217.637 111.376 217.852 111.591 217.852 111.967V127.164C217.852 130.547 219.625 132.588 222.524 132.588C226.498 132.588 228.807 129.688 228.807 124.479V111.967C228.807 111.591 229.022 111.376 229.397 111.376H234.178C234.552 111.376 234.768 111.591 234.768 111.967V136.83C234.768 137.206 234.552 137.421 234.178 137.421H231.492C231.116 137.421 230.901 137.26 230.848 136.884L230.365 134.736Z" fill="#778080"/>
<path d="M298.896 131.675C300.185 132.319 301.689 132.588 303.299 132.588C307.435 132.588 309.797 129.527 309.797 124.371C309.797 119.27 307.435 116.209 303.46 116.209C299.433 116.209 297.286 119.539 297.286 124.21V130.923L298.896 131.675ZM295.889 114.115C296.104 114.706 296.534 114.652 296.909 114.169C299.003 111.806 301.528 110.84 304.427 110.84C311.462 110.84 315.705 116.048 315.705 124.371C315.705 132.802 311.194 138.012 303.675 138.012C301.742 138.012 300.346 137.69 298.789 136.991L297.338 136.347V148.376C297.338 148.752 297.125 148.967 296.748 148.967H291.969C291.592 148.967 291.378 148.752 291.378 148.376V111.967C291.378 111.592 291.592 111.376 291.969 111.376H294.654C295.03 111.376 295.245 111.537 295.298 111.859L295.889 114.115Z" fill="#778080"/>
<path d="M375.645 124.371C375.645 129.526 378.061 132.587 382.142 132.587C386.117 132.587 388.586 129.526 388.586 124.371C388.586 119.27 386.117 116.209 382.142 116.209C378.061 116.209 375.645 119.27 375.645 124.371ZM394.494 124.371C394.494 132.748 389.768 138.012 382.142 138.012C374.463 138.012 369.738 132.748 369.738 124.371C369.738 116.102 374.463 110.839 382.142 110.839C389.768 110.839 394.494 116.102 394.494 124.371Z" fill="#778080"/>
<path d="M998.683 123.683C996.479 123.683 995.444 124.718 995.444 126.247C995.444 128.002 996.659 129.082 998.818 129.082C1002.37 129.082 1004.31 127.328 1004.31 123.997V123.683H998.683ZM994.544 111.402C996.074 110.952 997.604 110.727 999.449 110.727C1005.52 110.727 1009.25 113.875 1009.25 119.319V132.501C1009.25 132.815 1009.08 132.996 1008.76 132.996H1006.51C1006.2 132.996 1006.02 132.861 1005.93 132.591L1005.57 131.196C1005.3 130.567 1005.03 130.567 1004.44 131.106C1003.05 132.635 1001.02 133.491 998.279 133.491C993.285 133.491 990.495 130.926 990.495 126.698C990.495 122.469 993.374 119.769 998.683 119.769H1004.31V119.499C1004.31 116.754 1002.55 115.27 999.223 115.27C997.918 115.27 996.793 115.406 995.714 115.72L994.094 116.215C993.78 116.305 993.554 116.171 993.464 115.855L992.475 112.526C992.385 112.212 992.52 111.986 992.835 111.896L994.544 111.402Z" fill="#5F257B"/>
<path d="M1024.95 113.427C1025.22 113.966 1025.49 113.922 1025.99 113.471C1027.74 111.492 1029.99 110.728 1032.19 110.728C1037.32 110.728 1040.43 113.922 1040.43 119.23V132.502C1040.43 132.816 1040.25 132.996 1039.93 132.996H1035.93C1035.61 132.996 1035.43 132.816 1035.43 132.502V119.77C1035.43 116.935 1033.95 115.226 1031.52 115.226C1028.19 115.226 1026.26 117.655 1026.26 122.019V132.502C1026.26 132.816 1026.08 132.996 1025.76 132.996H1021.76C1021.44 132.996 1021.26 132.816 1021.26 132.502V111.672C1021.26 111.357 1021.44 111.177 1021.76 111.177H1024.01C1024.32 111.177 1024.5 111.313 1024.55 111.628L1024.95 113.427Z" fill="#5F257B"/>
<path d="M1056.39 122.064C1056.39 126.382 1058.42 128.947 1061.84 128.947C1065.16 128.947 1067.24 126.382 1067.24 122.064C1067.24 117.79 1065.16 115.226 1061.84 115.226C1058.42 115.226 1056.39 117.79 1056.39 122.064ZM1072.18 122.064C1072.18 129.083 1068.22 133.491 1061.84 133.491C1055.4 133.491 1051.44 129.083 1051.44 122.064C1051.44 115.135 1055.4 110.727 1061.84 110.727C1068.22 110.727 1072.18 115.135 1072.18 122.064Z" fill="#5F257B"/>
<path d="M1088.42 123.324C1084.69 122.379 1082.93 120.445 1082.93 117.205C1082.93 113.156 1085.94 110.727 1091.16 110.727C1093.19 110.727 1095.26 111.042 1096.74 111.447L1098.72 111.942C1099.04 112.032 1099.17 112.257 1099.08 112.571L1098.14 115.945C1098.05 116.26 1097.82 116.396 1097.51 116.305L1095.53 115.765C1094.31 115.406 1092.51 115.226 1091.16 115.226C1089.09 115.226 1087.88 115.991 1087.88 117.205C1087.88 118.24 1088.51 118.87 1089.9 119.275L1094.4 120.445C1098.32 121.435 1100.07 123.459 1100.07 126.699C1100.07 130.927 1096.92 133.491 1091.61 133.491C1089.27 133.491 1086.93 133.176 1084.73 132.546L1082.98 132.051C1082.66 131.962 1082.53 131.736 1082.62 131.421L1083.65 128.047C1083.74 127.777 1083.97 127.642 1084.23 127.733L1085.86 128.183C1087.56 128.678 1089.95 128.947 1091.61 128.947C1093.82 128.947 1095.08 128.093 1095.08 126.699C1095.08 125.618 1094.45 124.943 1092.96 124.493L1088.42 123.324Z" fill="#5F257B"/>
<path d="M965.078 286.068H814.85V270.758H965.078V286.068Z" fill="#135182"/>
<path d="M965.078 248.237H859.458L933.184 175.612C948.521 160.273 957.424 146.842 957.424 123.697C957.424 86.5842 927.23 56.3912 890.119 56.3912C853.008 56.3912 822.815 86.5842 822.815 123.697V136.454H807.505V123.697C807.505 78.1442 844.565 41.0812 890.119 41.0812C935.673 41.0812 972.733 78.1442 972.733 123.697C972.733 151.924 961.235 169.208 943.971 186.474L896.813 232.927H965.078V248.237Z" fill="#135182"/>
<path d="M1043.64 0C1007.17 0 972.605 15.948 948.809 43.754L960.437 53.703C981.325 29.302 1011.65 15.307 1043.64 15.307C1104.02 15.307 1153.14 64.426 1153.14 124.802C1153.14 167.619 1128.43 204.77 1092.54 222.759C1077.82 230.139 1061.21 234.294 1043.64 234.294H1043.64V249.604H1043.64C1072.79 249.604 1099.63 239.565 1120.89 222.759C1149.84 199.885 1168.44 164.475 1168.44 124.802C1168.44 55.984 1112.46 0 1043.64 0Z" fill="#135182"/>
<path d="M1025.85 232.849C1031.69 233.81 1037.67 234.294 1043.64 234.294V249.605C1036.85 249.605 1030.03 249.05 1023.37 247.957C988.521 242.241 957.551 221.783 938.414 191.837C926.829 173.714 920.12 152.781 919.011 131.3L934.298 130.512C935.271 149.345 941.151 167.701 951.312 183.598C968.115 209.881 995.28 227.835 1025.85 232.849Z" fill="#135182"/>
<path d="M820.228 255.301L809.473 244.406L906.267 148.895C917.744 137.677 919.592 132.283 919.592 123.697C919.592 107.446 906.372 94.2247 890.119 94.2247C873.867 94.2247 860.643 107.446 860.643 123.697V136.454H845.333V123.697C845.333 99.0047 865.424 78.9137 890.119 78.9137C914.811 78.9137 934.902 99.0047 934.902 123.697C934.902 137.616 930.382 146.731 916.995 159.816L820.228 255.301Z" fill="#135182"/>
<path d="M1043.64 53.1401C1082.65 53.1401 1114.38 85.2871 1114.38 124.802C1114.38 164.316 1082.65 196.464 1043.64 196.464C1004.64 196.464 972.906 164.316 972.906 124.802C972.906 85.2871 1004.64 53.1401 1043.64 53.1401ZM1043.64 211.773C1091.09 211.773 1129.69 172.757 1129.69 124.802C1129.69 76.8471 1091.09 37.8301 1043.64 37.8301C996.197 37.8301 957.595 76.8471 957.595 124.802C957.595 172.757 996.197 211.773 1043.64 211.773Z" fill="#135182"/>
</svg>
